<?xml version="1.0" standalone="no"?>
<!DOCTYPE svg PUBLIC "-//W3C//DTD SVG 20010904//EN"
 "http://www.w3.org/TR/2001/REC-SVG-20010904/DTD/svg10.dtd">
<svg version="1.0" xmlns="http://www.w3.org/2000/svg"
 width="1024.000000pt" height="1024.000000pt" viewBox="0 0 1024.000000 1024.000000"
 preserveAspectRatio="xMidYMid meet">

<g transform="translate(0.000000,1024.000000) scale(0.100000,-0.100000)"
fill="#000000" stroke="none">
<path d="M2617 9275 c-909 -110 -1643 -696 -1931 -1542 -98 -287 -130 -500
-129 -858 2 -1074 267 -1829 903 -2570 353 -411 652 -689 1905 -1775 187 -162
462 -403 610 -534 378 -336 639 -574 1072 -979 l73 -69 78 73 c421 395 674
625 1062 969 268 238 369 326 990 865 1021 886 1399 1258 1724 1694 396 532
605 1074 681 1763 22 200 38 564 30 708 -32 642 -267 1189 -692 1607 -341 336
-769 550 -1267 634 -156 26 -478 36 -637 20 -544 -56 -1050 -298 -1475 -703
-155 -149 -338 -374 -445 -547 -24 -39 -46 -71 -49 -71 -3 0 -25 32 -49 71
-159 258 -415 542 -665 738 -360 282 -799 463 -1238 510 -129 14 -417 12 -551
-4z"/>
</g>
</svg>
